# Blender v2.79 (sub 0) OBJ File: ''
# www.blender.org
mtllib Columna.mtl
o Cylinder
v 0.000000 -6.336747 -0.999999
v 0.555570 6.336747 -0.831471
v 0.707107 -6.336747 -0.707106
v 0.980785 6.336747 -0.195091
v 1.000000 -6.336747 0.000001
v 0.831470 6.336747 0.555569
v 0.707107 -6.336747 0.707108
v 0.195090 6.336747 0.980784
v -0.000000 -6.336747 1.000001
v -0.195091 6.336747 0.980784
v -0.707107 -6.336747 0.707107
v -0.831470 6.336747 0.555569
v -1.000000 -6.336747 0.000000
v -0.980785 6.336747 -0.195092
v -0.707106 -6.336747 -0.707107
v -0.555569 6.336747 -0.831471
vn 0.8315 0.0045 -0.5556
vn 0.9239 -0.0045 0.3827
vn 0.9808 0.0045 0.1951
vn -0.9239 -0.0045 0.3827
vn 0.3827 -0.0045 0.9239
vn 0.5556 0.0045 0.8315
vn -0.0000 0.0015 1.0000
vn -0.9239 -0.0045 -0.3827
vn -0.5556 0.0045 0.8315
vn -0.3827 -0.0045 -0.9239
vn -0.9808 0.0045 0.1951
vn 0.0000 -1.0000 0.0000
vn -0.8315 0.0045 -0.5556
vn 0.0000 1.0000 -0.0000
vn 0.0000 0.0133 -0.9999
vn 0.9239 -0.0045 -0.3827
vn 0.3827 -0.0045 -0.9239
vn -0.3827 -0.0045 0.9239
usemtl None
s 1
f 3//1 2//1 4//1
f 5//2 6//2 7//2
f 5//3 4//3 6//3
f 11//4 12//4 13//4
f 7//5 8//5 9//5
f 7//6 6//6 8//6
f 8//7 10//7 9//7
f 13//8 14//8 15//8
f 11//9 10//9 12//9
f 1//10 15//10 16//10
f 13//11 12//11 14//11
f 1//12 3//12 5//12 7//12 9//12 11//12 13//12 15//12
f 15//13 14//13 16//13
f 16//14 14//14 12//14 10//14 8//14 6//14 4//14 2//14
f 1//15 16//15 2//15
f 3//16 4//16 5//16
f 1//17 2//17 3//17
f 9//18 10//18 11//18
